<svg xmlns="http://www.w3.org/2000/svg" width="37" height="50" viewBox="0 0 37 50">
  <path d="M580.622797,7796.5 C589.414084,7796.5 596.54083,7803.62675 596.54083,7812.41803 L596.54083,7812.41803 L596.54083,7829.88647 C596.54083,7838.67776 589.414084,7845.80451 580.622797,7845.80451 L580.622797,7845.80451 L560.5,7845.80451 L560.5,7796.5 Z M561.1,7821.843 L561.100681,7845.20382 L578.387,7845.203 L561.1,7821.843 Z M580.622797,7797.10068 L579.134,7797.1 L561.336147,7821.15193 L579.134,7845.203 L580.622797,7845.20382 C588.976593,7845.20382 595.768454,7838.51639 595.936945,7830.20294 L595.94015,7829.88647 L595.94015,7812.41803 C595.94015,7803.95849 589.082337,7797.10068 580.622797,7797.10068 L580.622797,7797.10068 Z M578.387,7797.1 L561.100681,7797.10068 L561.1,7820.461 L578.387,7797.1 Z" transform="translate(-560 -7796)"/>
</svg>
