<svg xmlns="http://www.w3.org/2000/svg" width="73" height="87" viewBox="0 0 73 87">
  <path fill-rule="evenodd" d="M812.040974,6491.05347 L808.023139,6491.05347 C807.695088,6484.67845 806.105303,6478.6312 803.502976,6473.1544 C804.772596,6472.64777 805.975187,6472.06708 807.122576,6471.42651 C809.976461,6477.42727 811.70898,6484.05994 812.040974,6491.05347 Z M762.861728,6445.93194 L762.861728,6441.91751 C780.667952,6442.75979 796.142334,6452.64419 804.784425,6467.06461 C803.641767,6467.70755 802.423405,6468.27485 801.125396,6468.76178 C793.144927,6455.70524 779.059241,6446.76319 762.861728,6445.93194 Z M753.95073,6491.05347 L757.910998,6491.05347 L757.910998,6441.85763 L753.95073,6441.85763 L753.95073,6491.05347 Z M786.873319,6414.47601 C796.792127,6414.47601 804.389344,6416.95952 809.452842,6421.85641 C814.49347,6426.73282 817.04927,6433.74605 817.04927,6442.70306 C817.04927,6451.66402 814.491893,6458.69695 809.447322,6463.60724 C809.246233,6463.80343 809.034104,6463.98859 808.825129,6464.1769 C799.276955,6448.5037 782.326344,6437.80932 762.861728,6436.96862 L762.861728,6414.47601 L786.873319,6414.47601 Z M812.902108,6467.15049 C818.938717,6461.27343 822,6453.04918 822,6442.70306 C822,6432.35538 818.93714,6424.14609 812.895799,6418.30212 C806.877327,6412.4818 798.12168,6409.53027 786.873319,6409.53027 L757.910998,6409.53027 L757.910998,6436.91189 L753.95073,6436.91189 L753.95073,6409 L749,6409 L749,6496 L762.861728,6496 L762.861728,6450.89108 C776.781022,6451.68924 788.931523,6459.17285 796.149431,6470.16899 C793.327878,6470.74102 790.237418,6471.0357 786.873319,6471.0357 L774.218124,6471.0357 L774.218124,6475.98144 L786.873319,6475.98144 C791.19949,6475.98144 795.15345,6475.53864 798.728101,6474.66484 C801.544922,6480.35674 803.135496,6486.75854 803.135496,6493.52673 L803.135496,6496 L817.04927,6496 L817.04927,6493.52673 C817.04927,6484.5902 814.963466,6476.13272 811.257122,6468.60971 C811.823325,6468.14248 812.376911,6467.66185 812.902108,6467.15049 L812.902108,6467.15049 Z" opacity=".189" transform="translate(-749 -6409)"/>
</svg>
