<svg xmlns="http://www.w3.org/2000/svg" width="75" height="92" viewBox="0 0 75 92">
  <path fill-rule="evenodd" d="M23.3163042 10.2076492C24.8014453 7.63034179 26.8712134 6.34286926 29.5224653 6.34286926 32.1745029 6.34286926 34.2419136 7.63034179 35.7294121 10.2076492 37.215339 12.7841691 37.9594811 17.3324513 37.9594811 23.854858 37.9594811 30.3764773 37.215339 34.9255469 35.7294121 37.5028543 34.2419136 40.0801617 32.1745029 41.3668468 29.5224653 41.3668468 26.8712134 41.3668468 24.8014453 40.0801617 23.3163042 37.5028543 21.82802 34.9255469 21.0862352 30.3764773 21.0862352 23.854858 21.0862352 17.3324513 21.82802 12.7841691 23.3163042 10.2076492zM10.6375997 39.1517641C16.0155392 42.7417257 23.3084464 43.7827279 29.5224653 43.7827279 38.2007183 43.7827279 44.7879869 41.9519184 49.2882002 38.2871495 53.7876276 34.6247429 56.0373414 29.8142416 56.0373414 23.854858 56.0373414 16.9765262 52.4447144 10.5171151 46.2134081 7.40591997 44.2010026 6.40114018 42.140664 5.60188354 39.9475271 5.07350796 36.7729398 4.30968634 33.2981811 3.92620063 29.5224653 3.92620063 20.844998 3.92620063 14.255372 5.75858509 9.75673035 9.4217791 5.2565171 13.086548 3.00837496 17.8970493 3.00837496 23.854858 3.00837496 27.3983604 3.67079503 30.4363231 4.99642097 32.9734708 6.36212214 35.5862132 8.32187975 37.6052221 10.6375997 39.1517641L10.6375997 39.1517641zM55.7363842 54.471506C52.3205597 50.9689508 47.6011113 49.2176731 41.574896 49.2176731L18.6754348 49.2176731C15.0600199 49.2176731 12.5478527 48.8554485 11.142862 48.1309991 10.0301849 47.5561642 9.14145761 46.6017809 9.05187767 45.2961972 8.9787993 44.2386586 9.49113369 43.4496387 10.082047 42.651957 6.21517961 42.3235924 2.05521297 44.5300132.790092786 48.2680145-.94257182 53.3864068.529996648 59.0504985 4.81568951 62.3821782 8.02878047 64.8791662 12.6500052 66.126479 18.6754348 66.126479L41.574896 66.126479C51.217312 66.126479 56.0373414 68.7415838 56.0373414 73.976518 56.0373414 78.0830435 53.7671971 81.5249655 49.2276944 84.3030713 44.1805721 87.3914305 38.220363 88.8308799 32.3583775 89.174206 26.0555645 89.5443051 20.2635142 88.5599989 14.4203877 86.2653842 16.7863982 84.5093819 18.2621098 81.5942606 18.2361788 78.6437043 18.2118193 75.6939355 16.671673 72.7882635 14.2247262 71.1480156 11.7777795 69.5077678 8.488467 69.196727 5.79321095 70.384194 3.97175219 71.185813 2.45753691 72.6181754 1.41793815 74.3190565.416843041 75.9569421-.164640772 77.8972065.041235929 79.807548.278544188 82.0139688 1.55152227 84.0180163 3.21346587 85.4873886 8.00913575 89.7277798 15.6171442 90.9821796 21.7635853 91.6585948 28.6871716 92.4200541 35.454386 91.8617556 42.2404592 90.4412049 47.8321333 89.2710617 53.462311 86.633121 57.0502233 82.0234182 59.8224867 78.4633794 60.8589423 73.5717713 60.8589423 69.1455431 60.8589423 62.8656694 59.1498514 57.9740612 55.7363842 54.471506M75 9.20365684C75 14.2874016 70.8879665 18.4088886 65.8149131 18.4088886 60.7418597 18.4088886 56.6290404 14.2874016 56.6290404 9.20365684 56.6290404 4.12069954 60.7418597 0 65.8149131 0 70.8879665 0 75 4.12069954 75 9.20365684" opacity=".189"/>
</svg>
