<svg xmlns="http://www.w3.org/2000/svg" width="86" height="90" viewBox="0 0 86 90">
  <g fill-rule="evenodd" opacity=".189">
    <path d="M43 0C19.2516495 0 0 19.0454122 0 42.5385694L86 42.5385694C86 19.0454122 66.7483505 0 43 0M81.2972465 47.4606466C81.2972465 68.3516417 64.1172177 85.3476257 43 85.3476257 21.8827823 85.3476257 4.70275351 68.3516417 4.70275351 47.4606466L0 47.4606466C0 70.9169549 19.28969 90 43 90 66.71031 90 86 70.9169549 86 47.4606466L81.2972465 47.4606466"/>
    <path d="M43,79.3537933 C60.7759962,79.3537933 75.2377161,65.0462136 75.2377161,47.4606466 L70.5349626,47.4606466 C70.5349626,62.4809004 58.1829039,74.7006351 43,74.7006351 C27.8170961,74.7006351 15.4650374,62.4809004 15.4650374,47.4606466 L10.7614914,47.4606466 C10.7614914,65.0462136 25.2240038,79.3537933 43,79.3537933"/>
  </g>
</svg>
