<svg xmlns="http://www.w3.org/2000/svg" width="107" height="83" viewBox="0 0 107 83">
  <path fill-rule="evenodd" d="M1544.09147,6408.97845 L1594.58806,6460.51277 L1575.69861,6480.86502 L1527.53251,6429.38126 L1539.163,6408.97845 L1544.09147,6408.97845 Z M1628.61276,6428.40405 L1613.88306,6405.15258 C1613.4281,6404.43133 1612.64839,6404 1611.79808,6404 L1575.50172,6404 C1574.13841,6404 1573.03004,6405.11703 1573.03004,6406.48923 C1573.03004,6407.86142 1574.13841,6408.97845 1575.50172,6408.97845 L1610.4434,6408.97845 L1623.41367,6429.45314 L1597.96653,6456.87176 L1546.88633,6404.74258 C1546.42353,6404.26938 1545.80541,6404.00474 1545.14493,6404 C1545.07198,6404.00158 1544.99982,6404.0158 1544.92687,6404.02291 C1544.85156,6404.0158 1544.77783,6404 1544.69939,6404 L1537.73144,6404 C1536.8482,6404 1536.02613,6404.47952 1535.58843,6405.25054 L1522.33106,6428.50359 C1521.78589,6429.46025 1521.92317,6430.64364 1522.67542,6431.45021 L1573.90779,6486.21239 C1574.36118,6486.69507 1574.99499,6486.97788 1575.65311,6486.9921 C1575.7143,6486.99763 1575.77391,6487 1575.83274,6487 C1576.44145,6487 1577.02976,6486.72272 1577.51139,6486.20291 L1628.33508,6431.44231 C1629.10459,6430.61125 1629.21833,6429.3623 1628.61276,6428.40405 L1628.61276,6428.40405 Z" opacity=".189" transform="translate(-1522 -6404)"/>
</svg>
